<?xml version="1.0" encoding="UTF-8"?><svg id="Layer_2" xmlns="http://www.w3.org/2000/svg" viewBox="0 0 525.76 492.94"><defs><style>.cls-1{fill:#c1351d;}</style></defs><g id="Layer_1-2"><path class="cls-1" d="M192.5,280h0l140-.2c4.83,0,8.74-3.92,8.74-8.75V136.94c0-2.99-1.52-5.77-4.04-7.38-14.45-9.38-30.46-16.11-47.28-19.88,10.68-4,19.92-11.09,26.56-20.35,6.64-9.27,10.39-20.3,10.75-31.69,0-31.78-29.05-57.64-64.75-57.64s-64.75,25.85-64.75,57.64c.36,11.35,4.07,22.33,10.67,31.57,6.59,9.24,15.77,16.33,26.39,20.36-17.08,3.52-33.27,10.46-47.6,20.4-2.18,1.66-3.46,4.23-3.46,6.97v134.31c0,2.32,.92,4.55,2.56,6.19s3.87,2.56,6.19,2.56h0Zm22.75-222.36c0-22.13,21.19-40.14,47.25-40.14s47.25,18,47.25,40.14-21.19,40.04-47.25,40.04c-26.05,0-47.25-17.96-47.25-40.04Zm-14,83.95c18.14-11.14,38.95-17.17,60.23-17.45,.38,0,.77-.03,1.15-.09,.27,.03,.55,.05,.84,.05,21.31,.44,42.12,6.55,60.28,17.72v120.48l-122.5,.18v-120.9Z"/><path class="cls-1" d="M376.25,280h0l140-.2c4.83,0,8.74-3.92,8.74-8.75V136.94c0-2.99-1.52-5.77-4.04-7.38-14.45-9.38-30.47-16.11-47.28-19.88,10.68-4,19.92-11.09,26.56-20.35,6.64-9.27,10.39-20.3,10.75-31.69,0-31.78-29.05-57.64-64.75-57.64s-64.75,25.85-64.75,57.64c.36,11.35,4.07,22.33,10.67,31.57,6.59,9.24,15.77,16.33,26.39,20.36-17.08,3.52-33.27,10.46-47.6,20.4-2.18,1.66-3.46,4.23-3.46,6.97v134.31c0,2.32,.92,4.55,2.56,6.19s3.87,2.56,6.19,2.56h0Zm22.75-222.36c0-22.13,21.19-40.14,47.25-40.14s47.25,18,47.25,40.14-21.19,40.04-47.25,40.04c-26.05,0-47.25-17.96-47.25-40.04Zm-14,83.95c18.14-11.14,38.95-17.17,60.23-17.45,.38,0,.77-.03,1.15-.09,.27,.03,.55,.05,.84,.05,21.31,.44,42.12,6.55,60.28,17.72v120.48l-122.5,.18v-120.9Z"/><path class="cls-1" d="M0,271.25c0,2.32,.92,4.55,2.56,6.19s3.87,2.56,6.19,2.56h0l140-.2c4.83,0,8.74-3.92,8.74-8.75V136.94c0-2.99-1.52-5.77-4.04-7.38-14.45-9.38-30.46-16.11-47.28-19.88,10.68-4,19.92-11.09,26.56-20.35,6.64-9.27,10.39-20.3,10.75-31.69C143.5,25.86,114.45,0,78.75,0S14,25.85,14,57.64c.36,11.35,4.07,22.33,10.67,31.57,6.59,9.24,15.77,16.33,26.39,20.36-17.08,3.52-33.27,10.46-47.6,20.4C1.28,131.63,0,134.21,0,136.94v134.31ZM31.5,57.64c0-22.13,21.19-40.14,47.25-40.14s47.25,18,47.25,40.14-21.19,40.04-47.25,40.04c-26.05,0-47.25-17.96-47.25-40.04Zm-14,83.95c18.14-11.14,38.95-17.17,60.23-17.45,.38,0,.77-.03,1.15-.09,.27,.03,.55,.05,.84,.05,21.31,.44,42.12,6.55,60.28,17.72v120.48l-122.5,.18v-120.9Z"/><path class="cls-1" d="M8.75,490H96.25c2.32,0,4.55-.92,6.19-2.56s2.56-3.87,2.56-6.19v-7.09c61.58,10.83,123.87,17.11,186.38,18.78,34.38,0,64.32-3.38,80.54-12.89,52.09-30.53,126.08-105.45,131.41-111.5,20.82-23.67,26.65-38.04,19.53-48.06-10.35-14.54-43.55-3.8-63.08,4.2l-131.62,66.93h-.01c-17.56-1.77-35.02-4.43-52.31-7.96,19.77-.91,39.43-3.48,58.77-7.68,12.34-2.16,23.17-9.48,29.77-20.12,4.3-8.02,5.25-17.41,2.66-26.13-.13-.39-.29-.77-.47-1.14-1.86-3.73-13.96-22.34-69.08-22.34H105c0-2.32-.92-4.55-2.56-6.19s-3.87-2.56-6.19-2.56H8.75c-2.32,0-4.55,.92-6.19,2.56S0,303.93,0,306.25v175c0,2.32,.92,4.55,2.56,6.19s3.87,2.56,6.19,2.56h0Zm288.74-166.25c39.75,0,51.26,10.38,53.13,12.35,.79,3.92,.2,7.99-1.68,11.52-4.39,6.16-11.09,10.27-18.58,11.4-33.54,8.38-93.53,8.48-94.13,8.48-4.83,0-8.75,3.92-8.75,8.75v8.75c0,4.17,2.95,7.76,7.03,8.58,89.79,17.95,96.72,15.64,98.98,14.86,.4-.13,.79-.29,1.17-.48l132.37-67.35h0c12.88-5.93,26.8-9.25,40.97-9.76-4.02,9.87-10.08,18.77-17.79,26.13-6.56,7.25-78.02,79.2-127.16,107.97-39.56,23.2-193.23,2.75-258.07-8.53v-132.67h192.5Zm-279.99-8.74H87.5v157.5H17.5v-157.5Z"/></g></svg>